<?xml version="1.0" encoding="UTF-8"?>
<svg id="Calque_2" data-name="Calque 2" xmlns="http://www.w3.org/2000/svg" viewBox="0 0 186.3 189.54">
  <defs>
    <style>
      .cls-1 {
        fill: #0af4b5;
      }
    </style>
  </defs>
  <g id="Calque_1-2" data-name="Calque 1">
    <path class="cls-1" d="m97.47,187.65l-43.2-75.06h-23.49v75.06H0V0h64.8c14.4,0,26.59,2.52,36.58,7.56,9.99,5.04,17.46,11.79,22.41,20.25,4.95,8.46,7.42,17.91,7.42,28.35,0,12.24-3.56,23.36-10.67,33.35-7.11,9.99-18.05,16.79-32.8,20.38l46.44,77.76h-36.72ZM30.78,88.02h34.02c11.52,0,20.2-2.88,26.06-8.64,5.85-5.76,8.77-13.5,8.77-23.22s-2.88-17.32-8.64-22.82c-5.76-5.49-14.49-8.23-26.19-8.23H30.78v62.91Z"/>
    <path d="m152.82,183.87c-3.78-3.78-5.67-8.46-5.67-14.04s1.89-10.26,5.67-14.04c3.78-3.78,8.46-5.67,14.04-5.67s9.99,1.89,13.77,5.67c3.78,3.78,5.67,8.46,5.67,14.04s-1.89,10.26-5.67,14.04-8.37,5.67-13.77,5.67-10.26-1.89-14.04-5.67Z"/>
  </g>
</svg>