<?xml version="1.0" encoding="UTF-8"?>
<svg id="Calque_2" data-name="Calque 2" xmlns="http://www.w3.org/2000/svg" viewBox="0 0 1189.87 202.23">
  <defs>
    <style>
      .cls-1 {
        fill: #fff;
      }

      .cls-2 {
        fill: #12e772;
      }
    </style>
  </defs>
  <g id="Calque_1-2" data-name="Calque 1">
    <g>
      <path class="cls-1" d="m12.82,56.16c8.55-14.58,20.16-25.96,34.83-34.16,14.67-8.19,30.73-12.29,48.19-12.29,19.98,0,37.75,4.91,53.33,14.71,15.57,9.81,26.86,23.72,33.88,41.72h-36.99c-4.86-9.9-11.61-17.28-20.25-22.14s-18.63-7.29-29.97-7.29c-12.42,0-23.49,2.79-33.21,8.37-9.72,5.58-17.33,13.59-22.81,24.03-5.49,10.44-8.23,22.59-8.23,36.45s2.74,26.01,8.23,36.45c5.49,10.44,13.1,18.5,22.81,24.17,9.72,5.67,20.79,8.5,33.21,8.5,11.34,0,21.33-2.43,29.97-7.29,8.64-4.86,15.39-12.24,20.25-22.14h36.99c-7.02,18-18.32,31.86-33.88,41.58-15.57,9.72-33.35,14.58-53.33,14.58-17.64,0-33.75-4.09-48.33-12.29-14.58-8.19-26.15-19.58-34.69-34.16C4.27,140.4,0,123.93,0,105.57s4.27-34.83,12.82-49.41Z"/>
      <path class="cls-1" d="m310.09,55.89c8.91,4.86,15.93,12.06,21.06,21.6,5.13,9.54,7.7,21.06,7.7,34.56v87.75h-30.51v-83.16c0-13.32-3.33-23.53-9.99-30.64-6.66-7.11-15.75-10.67-27.27-10.67s-20.66,3.56-27.41,10.67c-6.75,7.11-10.12,17.33-10.12,30.64v83.16h-30.78V0h30.78v68.31c5.22-6.3,11.83-11.16,19.85-14.58,8.01-3.42,16.78-5.13,26.33-5.13,11.34,0,21.46,2.43,30.38,7.29Z"/>
      <path class="cls-1" d="m360.85,85.05c6.21-11.52,14.67-20.47,25.38-26.87,10.71-6.39,22.54-9.58,35.5-9.58,11.7,0,21.91,2.29,30.65,6.88,8.73,4.59,15.7,10.31,20.92,17.15v-21.6h31.05v148.77h-31.05v-22.14c-5.22,7.02-12.33,12.87-21.33,17.55-9,4.68-19.26,7.02-30.78,7.02-12.78,0-24.48-3.28-35.1-9.85-10.62-6.57-19.03-15.75-25.24-27.54-6.21-11.79-9.31-25.15-9.31-40.09s3.1-28.17,9.31-39.69Zm106.11,13.5c-4.23-7.56-9.77-13.32-16.6-17.28-6.84-3.96-14.22-5.94-22.14-5.94s-15.3,1.94-22.14,5.8c-6.84,3.87-12.38,9.54-16.6,17.01-4.23,7.47-6.34,16.33-6.34,26.6s2.11,19.26,6.34,27c4.23,7.74,9.81,13.63,16.74,17.68,6.93,4.05,14.26,6.08,22,6.08s15.3-1.98,22.14-5.94c6.84-3.96,12.37-9.76,16.6-17.42,4.23-7.65,6.34-16.6,6.34-26.86s-2.12-19.17-6.34-26.73Z"/>
      <path class="cls-1" d="m577.39,54.95c7.47-4.23,16.33-6.35,26.59-6.35v31.86h-7.83c-12.06,0-21.2,3.06-27.4,9.18-6.21,6.12-9.32,16.74-9.32,31.86v78.3h-30.78V51.03h30.78v21.6c4.5-7.56,10.48-13.45,17.96-17.68Z"/>
      <path class="cls-1" d="m646.91,0v199.8h-30.78V0h30.78Z"/>
      <path class="cls-1" d="m806.48,136.89h-113.67c.9,11.88,5.31,21.42,13.23,28.62,7.92,7.2,17.64,10.8,29.16,10.8,16.56,0,28.26-6.93,35.1-20.79h33.21c-4.5,13.68-12.65,24.89-24.43,33.62-11.79,8.73-26.42,13.09-43.88,13.09-14.22,0-26.96-3.19-38.21-9.58-11.25-6.39-20.07-15.39-26.46-27-6.39-11.61-9.58-25.06-9.58-40.36s3.1-28.76,9.31-40.37c6.21-11.61,14.94-20.56,26.19-26.87,11.25-6.3,24.17-9.45,38.75-9.45s26.55,3.06,37.53,9.18c10.98,6.12,19.53,14.72,25.65,25.79,6.12,11.07,9.18,23.81,9.18,38.21,0,5.58-.36,10.62-1.08,15.12Zm-31.05-24.84c-.18-11.34-4.23-20.43-12.15-27.27-7.92-6.84-17.73-10.26-29.43-10.26-10.62,0-19.71,3.38-27.27,10.12-7.56,6.75-12.06,15.89-13.5,27.41h82.35Z"/>
      <path class="cls-1" d="m844.14,195.88c-9.27-4.23-16.6-9.99-22-17.28s-8.28-15.43-8.64-24.43h31.86c.54,6.3,3.55,11.57,9.04,15.79,5.49,4.23,12.37,6.34,20.66,6.34s15.34-1.66,20.12-5c4.77-3.33,7.16-7.6,7.16-12.82,0-5.58-2.66-9.72-7.97-12.42-5.31-2.7-13.73-5.67-25.25-8.91-11.16-3.06-20.25-6.03-27.27-8.91-7.02-2.88-13.09-7.29-18.22-13.23-5.13-5.94-7.7-13.77-7.7-23.49,0-7.92,2.34-15.16,7.02-21.74,4.68-6.57,11.38-11.75,20.12-15.53,8.73-3.78,18.77-5.67,30.11-5.67,16.92,0,30.55,4.28,40.9,12.83,10.35,8.55,15.88,20.21,16.61,34.96h-30.78c-.54-6.66-3.24-11.97-8.1-15.93-4.86-3.96-11.43-5.94-19.71-5.94s-14.31,1.53-18.63,4.59c-4.32,3.06-6.48,7.11-6.48,12.15,0,3.96,1.44,7.29,4.32,9.99,2.88,2.7,6.39,4.82,10.53,6.34,4.14,1.53,10.26,3.47,18.36,5.8,10.8,2.88,19.66,5.81,26.59,8.78,6.93,2.97,12.91,7.34,17.96,13.09,5.04,5.76,7.65,13.41,7.83,22.95,0,8.46-2.34,16.02-7.02,22.68-4.68,6.66-11.3,11.88-19.84,15.66-8.55,3.78-18.59,5.67-30.11,5.67s-22.19-2.12-31.46-6.34Z"/>
      <path class="cls-2" d="m1101.04,199.8l-43.2-75.06h-23.49v75.06h-30.78V12.15h64.8c14.4,0,26.59,2.52,36.58,7.56,9.99,5.04,17.46,11.79,22.41,20.25,4.95,8.46,7.42,17.91,7.42,28.35,0,12.24-3.56,23.36-10.67,33.35-7.11,9.99-18.05,16.79-32.8,20.38l46.44,77.76h-36.72Zm-66.69-99.63h34.02c11.52,0,20.2-2.88,26.06-8.64,5.85-5.76,8.77-13.5,8.77-23.22s-2.88-17.32-8.64-22.82c-5.76-5.49-14.49-8.23-26.19-8.23h-34.02v62.91Z"/>
      <path class="cls-1" d="m1156.39,196.02c-3.78-3.78-5.67-8.46-5.67-14.04s1.89-10.26,5.67-14.04c3.78-3.78,8.46-5.67,14.04-5.67s9.99,1.89,13.77,5.67c3.78,3.78,5.67,8.46,5.67,14.04s-1.89,10.26-5.67,14.04-8.37,5.67-13.77,5.67-10.26-1.89-14.04-5.67Z"/>
    </g>
  </g>
</svg>